<svg xmlns="http://www.w3.org/2000/svg" viewBox="0 0 200 200" width="200" height="200">
<rect width="200" height="200" fill="#FEF3C7"/>
<path d="M58 150V96c0-28 19-46 42-46s42 18 42 46v54h-16V100c-8-12-20-18-26-18s-18 6-26 18v50z" fill="#111827"/>
<path d="M30 200c4-38 34-58 70-58s66 20 70 58z" fill="#D97706"/>
<path d="M86 128h28v22c0 8-28 8-28 0z" fill="#D99C6E" opacity=".85"/>
<ellipse cx="100" cy="98" rx="36" ry="40" fill="#D99C6E"/>

<circle cx="87" cy="100" r="3.6" fill="#1f2937"/><circle cx="113" cy="100" r="3.6" fill="#1f2937"/>
<path d="M89 117c6 5 16 5 22 0" stroke="#7c3f2a" stroke-width="3" fill="none" stroke-linecap="round"/>
<path d="M70 168c10 8 50 8 60 0" stroke="#ffffff" stroke-opacity=".35" stroke-width="4" fill="none" stroke-linecap="round"/>
</svg>